<svg width="25" height="24" viewBox="0 0 25 24" fill="none" xmlns="http://www.w3.org/2000/svg">
<path d="M18.8 5.71C18.7075 5.6173 18.5976 5.54375 18.4766 5.49357C18.3557 5.44339 18.226 5.41756 18.095 5.41756C17.964 5.41756 17.8344 5.44339 17.7134 5.49357C17.5924 5.54375 17.4825 5.6173 17.39 5.71L12.5 10.59L7.61 5.7C7.51742 5.60742 7.40751 5.53398 7.28655 5.48388C7.16558 5.43377 7.03593 5.40798 6.905 5.40798C6.77407 5.40798 6.64442 5.43377 6.52346 5.48388C6.40249 5.53398 6.29258 5.60742 6.2 5.7C6.10742 5.79258 6.03398 5.90249 5.98388 6.02346C5.93377 6.14442 5.90798 6.27407 5.90798 6.405C5.90798 6.53593 5.93377 6.66558 5.98388 6.78655C6.03398 6.90751 6.10742 7.01742 6.2 7.11L11.09 12L6.2 16.89C6.10742 16.9826 6.03398 17.0925 5.98388 17.2135C5.93377 17.3344 5.90798 17.4641 5.90798 17.595C5.90798 17.7259 5.93377 17.8556 5.98388 17.9765C6.03398 18.0975 6.10742 18.2074 6.2 18.3C6.29258 18.3926 6.40249 18.466 6.52346 18.5161C6.64442 18.5662 6.77407 18.592 6.905 18.592C7.03593 18.592 7.16558 18.5662 7.28655 18.5161C7.40751 18.466 7.51742 18.3926 7.61 18.3L12.5 13.41L17.39 18.3C17.4826 18.3926 17.5925 18.466 17.7135 18.5161C17.8344 18.5662 17.9641 18.592 18.095 18.592C18.2259 18.592 18.3556 18.5662 18.4765 18.5161C18.5975 18.466 18.7074 18.3926 18.8 18.3C18.8926 18.2074 18.966 18.0975 19.0161 17.9765C19.0662 17.8556 19.092 17.7259 19.092 17.595C19.092 17.4641 19.0662 17.3344 19.0161 17.2135C18.966 17.0925 18.8926 16.9826 18.8 16.89L13.91 12L18.8 7.11C19.18 6.73 19.18 6.09 18.8 5.71Z" fill="#18483B"/>
</svg>
